<?xml version="1.0" encoding="UTF-8" standalone="no"?>
<!DOCTYPE svg PUBLIC "-//W3C//DTD SVG 1.1//EN"
 "http://www.w3.org/Graphics/SVG/1.1/DTD/svg11.dtd">
<!-- Generated by graphviz version 2.28.0 (20130109.1153)
 -->
<!-- Title: ui Pages: 1 -->
<svg width="560pt" height="547pt"
 viewBox="0.00 0.00 560.00 547.00" xmlns="http://www.w3.org/2000/svg" xmlns:xlink="http://www.w3.org/1999/xlink">
<g id="graph1" class="graph" transform="scale(1 1) rotate(0) translate(4 543)">
<title>ui</title>
<polygon fill="white" stroke="white" points="-4,5 -4,-543 557,-543 557,5 -4,5"/>
<text text-anchor="middle" x="276" y="-7.8" font-family="Times,serif" font-size="14.00">n4vu</text>
<g id="graph2" class="cluster"><title>cluster_node</title>
<polygon fill="none" stroke="black" points="84,-285 84,-531 410,-531 410,-285 84,-285"/>
<text text-anchor="middle" x="247" y="-515.8" font-family="Times,serif" font-size="14.00">Node</text>
</g>
<g id="graph3" class="cluster"><title>cluster_nparm</title>
<polygon fill="none" stroke="black" points="332,-304 332,-499 402,-499 402,-304 332,-304"/>
<text text-anchor="middle" x="367" y="-483.8" font-family="Times,serif" font-size="14.00">Parm</text>
</g>
<g id="graph4" class="cluster"><title>cluster_rel</title>
<polygon fill="none" stroke="black" points="332,-31 332,-277 544,-277 544,-31 332,-31"/>
<text text-anchor="middle" x="438" y="-261.8" font-family="Times,serif" font-size="14.00">Relation</text>
</g>
<g id="graph5" class="cluster"><title>cluster_rparm</title>
<polygon fill="none" stroke="black" points="466,-50 466,-245 536,-245 536,-50 466,-50"/>
<text text-anchor="middle" x="501" y="-229.8" font-family="Times,serif" font-size="14.00">Parm</text>
</g>
<!-- node_list -->
<g id="node2" class="node"><title>node_list</title>
<polyline fill="none" stroke="black" points="134,-374 104,-374 "/>
<path fill="none" stroke="black" d="M104,-374C98,-374 92,-368 92,-362"/>
<polyline fill="none" stroke="black" points="92,-362 92,-350 "/>
<path fill="none" stroke="black" d="M92,-350C92,-344 98,-338 104,-338"/>
<polyline fill="none" stroke="black" points="104,-338 134,-338 "/>
<path fill="none" stroke="black" d="M134,-338C140,-338 146,-344 146,-350"/>
<polyline fill="none" stroke="black" points="146,-350 146,-362 "/>
<path fill="none" stroke="black" d="M146,-362C146,-368 140,-374 134,-374"/>
<text text-anchor="middle" x="119" y="-352.3" font-family="Times,serif" font-size="14.00">List</text>
</g>
<!-- node_view -->
<g id="node3" class="node"><title>node_view</title>
<polyline fill="none" stroke="black" points="254,-374 224,-374 "/>
<path fill="none" stroke="black" d="M224,-374C218,-374 212,-368 212,-362"/>
<polyline fill="none" stroke="black" points="212,-362 212,-350 "/>
<path fill="none" stroke="black" d="M212,-350C212,-344 218,-338 224,-338"/>
<polyline fill="none" stroke="black" points="224,-338 254,-338 "/>
<path fill="none" stroke="black" d="M254,-338C260,-338 266,-344 266,-350"/>
<polyline fill="none" stroke="black" points="266,-350 266,-362 "/>
<path fill="none" stroke="black" d="M266,-362C266,-368 260,-374 254,-374"/>
<text text-anchor="middle" x="239" y="-352.3" font-family="Times,serif" font-size="14.00">View</text>
</g>
<!-- node_list&#45;&gt;node_view -->
<g id="edge8" class="edge"><title>node_list&#45;&gt;node_view</title>
<path fill="none" stroke="black" d="M136.135,-337.684C143.763,-330.389 153.498,-322.829 164,-319 176.527,-314.433 181.473,-314.433 194,-319 201.22,-321.632 208.078,-326.028 214.138,-330.889"/>
<polygon fill="black" stroke="black" points="212.044,-333.709 221.865,-337.684 216.666,-328.452 212.044,-333.709"/>
<text text-anchor="middle" x="179" y="-322.8" font-family="Times,serif" font-size="14.00">View</text>
</g>
<!-- node_list&#45;&gt;node_view -->
<g id="edge10" class="edge"><title>node_list&#45;&gt;node_view</title>
<path fill="none" stroke="black" d="M146.188,-356C162.534,-356 183.808,-356 201.761,-356"/>
<polygon fill="black" stroke="black" points="201.885,-359.5 211.885,-356 201.885,-352.5 201.885,-359.5"/>
<text text-anchor="middle" x="179" y="-359.8" font-family="Times,serif" font-size="14.00">Add</text>
</g>
<!-- node_view&#45;&gt;node_list -->
<g id="edge12" class="edge"><title>node_view&#45;&gt;node_list</title>
<path fill="none" stroke="black" d="M211.886,-367.18C206.099,-369.179 199.924,-370.956 194,-372 180.869,-374.313 177.131,-374.313 164,-372 161.316,-371.527 158.58,-370.904 155.852,-370.177"/>
<polygon fill="black" stroke="black" points="156.701,-366.776 146.114,-367.18 154.642,-373.467 156.701,-366.776"/>
<text text-anchor="middle" x="179" y="-377.8" font-family="Times,serif" font-size="14.00">Del</text>
</g>
<!-- node_view&#45;&gt;node_view -->
<g id="edge14" class="edge"><title>node_view&#45;&gt;node_view</title>
<path fill="none" stroke="black" d="M233.573,-374.153C232.738,-383.539 234.547,-392 239,-392 241.714,-392 243.445,-388.858 244.195,-384.28"/>
<polygon fill="black" stroke="black" points="247.697,-384.23 244.427,-374.153 240.699,-384.07 247.697,-384.23"/>
<text text-anchor="middle" x="239" y="-410.8" font-family="Times,serif" font-size="14.00">Del</text>
<text text-anchor="middle" x="239" y="-395.8" font-family="Times,serif" font-size="14.00">parm</text>
</g>
<!-- node_view&#45;&gt;node_view -->
<g id="edge16" class="edge"><title>node_view&#45;&gt;node_view</title>
<path fill="none" stroke="black" d="M218.257,-374.236C204.853,-395.281 211.768,-422 239,-422 262.403,-422 270.8,-402.267 264.193,-383.361"/>
<polygon fill="black" stroke="black" points="267.272,-381.691 259.743,-374.236 260.98,-384.759 267.272,-381.691"/>
<text text-anchor="middle" x="239" y="-440.8" font-family="Times,serif" font-size="14.00">Del</text>
<text text-anchor="middle" x="239" y="-425.8" font-family="Times,serif" font-size="14.00">rel</text>
</g>
<!-- nparm_add -->
<g id="node5" class="node"><title>nparm_add</title>
<polyline fill="none" stroke="black" points="382,-348 352,-348 "/>
<path fill="none" stroke="black" d="M352,-348C346,-348 340,-342 340,-336"/>
<polyline fill="none" stroke="black" points="340,-336 340,-324 "/>
<path fill="none" stroke="black" d="M340,-324C340,-318 346,-312 352,-312"/>
<polyline fill="none" stroke="black" points="352,-312 382,-312 "/>
<path fill="none" stroke="black" d="M382,-312C388,-312 394,-318 394,-324"/>
<polyline fill="none" stroke="black" points="394,-324 394,-336 "/>
<path fill="none" stroke="black" d="M394,-336C394,-342 388,-348 382,-348"/>
<text text-anchor="middle" x="367" y="-326.3" font-family="Times,serif" font-size="14.00">Add</text>
</g>
<!-- node_view&#45;&gt;nparm_add -->
<g id="edge18" class="edge"><title>node_view&#45;&gt;nparm_add</title>
<path fill="none" stroke="black" d="M266.346,-352.168C282.488,-349.656 303.527,-346.086 322,-342 324.503,-341.446 327.076,-340.841 329.663,-340.205"/>
<polygon fill="black" stroke="black" points="330.767,-343.535 339.579,-337.653 329.022,-336.756 330.767,-343.535"/>
<text text-anchor="middle" x="303" y="-367.8" font-family="Times,serif" font-size="14.00">Add</text>
<text text-anchor="middle" x="303" y="-352.8" font-family="Times,serif" font-size="14.00">parm</text>
</g>
<!-- nparm_edit -->
<g id="node6" class="node"><title>nparm_edit</title>
<polyline fill="none" stroke="black" points="382,-435 352,-435 "/>
<path fill="none" stroke="black" d="M352,-435C346,-435 340,-429 340,-423"/>
<polyline fill="none" stroke="black" points="340,-423 340,-411 "/>
<path fill="none" stroke="black" d="M340,-411C340,-405 346,-399 352,-399"/>
<polyline fill="none" stroke="black" points="352,-399 382,-399 "/>
<path fill="none" stroke="black" d="M382,-399C388,-399 394,-405 394,-411"/>
<polyline fill="none" stroke="black" points="394,-411 394,-423 "/>
<path fill="none" stroke="black" d="M394,-423C394,-429 388,-435 382,-435"/>
<text text-anchor="middle" x="367" y="-413.3" font-family="Times,serif" font-size="14.00">Edit</text>
</g>
<!-- node_view&#45;&gt;nparm_edit -->
<g id="edge24" class="edge"><title>node_view&#45;&gt;nparm_edit</title>
<path fill="none" stroke="black" d="M242.86,-374.354C247.359,-396.232 258.387,-431.858 284,-448 300.187,-458.202 320.252,-450.907 336.481,-440.841"/>
<polygon fill="black" stroke="black" points="338.722,-443.551 345.054,-435.056 334.807,-437.748 338.722,-443.551"/>
<text text-anchor="middle" x="303" y="-470.8" font-family="Times,serif" font-size="14.00">Edit</text>
<text text-anchor="middle" x="303" y="-455.8" font-family="Times,serif" font-size="14.00">parm</text>
</g>
<!-- rel_view -->
<g id="node8" class="node"><title>rel_view</title>
<polyline fill="none" stroke="black" points="382,-207 352,-207 "/>
<path fill="none" stroke="black" d="M352,-207C346,-207 340,-201 340,-195"/>
<polyline fill="none" stroke="black" points="340,-195 340,-183 "/>
<path fill="none" stroke="black" d="M340,-183C340,-177 346,-171 352,-171"/>
<polyline fill="none" stroke="black" points="352,-171 382,-171 "/>
<path fill="none" stroke="black" d="M382,-171C388,-171 394,-177 394,-183"/>
<polyline fill="none" stroke="black" points="394,-183 394,-195 "/>
<path fill="none" stroke="black" d="M394,-195C394,-201 388,-207 382,-207"/>
<text text-anchor="middle" x="367" y="-185.3" font-family="Times,serif" font-size="14.00">View</text>
</g>
<!-- node_view&#45;&gt;rel_view -->
<g id="edge30" class="edge"><title>node_view&#45;&gt;rel_view</title>
<path fill="none" stroke="black" d="M253.724,-337.81C276.068,-308.196 320.396,-249.443 346.166,-215.288"/>
<polygon fill="black" stroke="black" points="349.064,-217.258 352.293,-207.167 343.476,-213.042 349.064,-217.258"/>
</g>
<!-- nparm_add&#45;&gt;node_view -->
<g id="edge22" class="edge"><title>nparm_add&#45;&gt;node_view</title>
<path fill="none" stroke="black" d="M339.828,-314.177C323.376,-306.353 301.944,-300.106 284,-308 273.492,-312.622 264.397,-321.13 257.248,-329.714"/>
<polygon fill="black" stroke="black" points="254.321,-327.779 251.007,-337.842 259.873,-332.042 254.321,-327.779"/>
<text text-anchor="middle" x="303" y="-326.8" font-family="Times,serif" font-size="14.00">OK</text>
<text text-anchor="middle" x="303" y="-311.8" font-family="Times,serif" font-size="14.00">Cancel</text>
</g>
<!-- nparm_add&#45;&gt;nparm_add -->
<g id="edge20" class="edge"><title>nparm_add&#45;&gt;nparm_add</title>
<path fill="none" stroke="black" d="M355.422,-348.153C353.641,-357.539 357.5,-366 367,-366 372.789,-366 376.484,-362.858 378.083,-358.28"/>
<polygon fill="black" stroke="black" points="381.586,-358.312 378.578,-348.153 374.594,-357.97 381.586,-358.312"/>
<text text-anchor="middle" x="367" y="-369.8" font-family="Times,serif" font-size="14.00">Err</text>
</g>
<!-- nparm_edit&#45;&gt;node_view -->
<g id="edge28" class="edge"><title>nparm_edit&#45;&gt;node_view</title>
<path fill="none" stroke="black" d="M339.676,-407.303C323.356,-400.995 302.121,-392.244 284,-383 281.046,-381.493 278.027,-379.858 275.023,-378.163"/>
<polygon fill="black" stroke="black" points="276.537,-374.993 266.138,-372.966 273.003,-381.036 276.537,-374.993"/>
<text text-anchor="middle" x="303" y="-419.8" font-family="Times,serif" font-size="14.00">OK</text>
<text text-anchor="middle" x="303" y="-404.8" font-family="Times,serif" font-size="14.00">Cancel</text>
</g>
<!-- nparm_edit&#45;&gt;nparm_edit -->
<g id="edge26" class="edge"><title>nparm_edit&#45;&gt;nparm_edit</title>
<path fill="none" stroke="black" d="M355.422,-435.153C353.641,-444.539 357.5,-453 367,-453 372.789,-453 376.484,-449.858 378.083,-445.28"/>
<polygon fill="black" stroke="black" points="381.586,-445.312 378.578,-435.153 374.594,-444.97 381.586,-445.312"/>
<text text-anchor="middle" x="367" y="-456.8" font-family="Times,serif" font-size="14.00">Err</text>
</g>
<!-- rel_view&#45;&gt;node_view -->
<g id="edge32" class="edge"><title>rel_view&#45;&gt;node_view</title>
<path fill="none" stroke="black" d="M339.628,-201.327C321.821,-210.811 298.93,-225.43 284,-244 264.159,-268.678 252.389,-303.395 246.087,-327.613"/>
<polygon fill="black" stroke="black" points="242.619,-327.062 243.641,-337.608 249.418,-328.727 242.619,-327.062"/>
</g>
<!-- rparm_add -->
<g id="node10" class="node"><title>rparm_add</title>
<polyline fill="none" stroke="black" points="516,-94 486,-94 "/>
<path fill="none" stroke="black" d="M486,-94C480,-94 474,-88 474,-82"/>
<polyline fill="none" stroke="black" points="474,-82 474,-70 "/>
<path fill="none" stroke="black" d="M474,-70C474,-64 480,-58 486,-58"/>
<polyline fill="none" stroke="black" points="486,-58 516,-58 "/>
<path fill="none" stroke="black" d="M516,-58C522,-58 528,-64 528,-70"/>
<polyline fill="none" stroke="black" points="528,-70 528,-82 "/>
<path fill="none" stroke="black" d="M528,-82C528,-88 522,-94 516,-94"/>
<text text-anchor="middle" x="501" y="-72.3" font-family="Times,serif" font-size="14.00">Add</text>
</g>
<!-- rel_view&#45;&gt;rparm_add -->
<g id="edge34" class="edge"><title>rel_view&#45;&gt;rparm_add</title>
<path fill="none" stroke="black" d="M368.806,-170.733C371.212,-141.199 380.709,-83.6816 418,-58 431.619,-48.621 449.272,-51.0904 464.708,-56.7484"/>
<polygon fill="black" stroke="black" points="463.4,-59.995 473.978,-60.606 466.09,-53.5323 463.4,-59.995"/>
<text text-anchor="middle" x="437" y="-76.8" font-family="Times,serif" font-size="14.00">Add</text>
<text text-anchor="middle" x="437" y="-61.8" font-family="Times,serif" font-size="14.00">parm</text>
</g>
<!-- rparm_edit -->
<g id="node11" class="node"><title>rparm_edit</title>
<polyline fill="none" stroke="black" points="516,-181 486,-181 "/>
<path fill="none" stroke="black" d="M486,-181C480,-181 474,-175 474,-169"/>
<polyline fill="none" stroke="black" points="474,-169 474,-157 "/>
<path fill="none" stroke="black" d="M474,-157C474,-151 480,-145 486,-145"/>
<polyline fill="none" stroke="black" points="486,-145 516,-145 "/>
<path fill="none" stroke="black" d="M516,-145C522,-145 528,-151 528,-157"/>
<polyline fill="none" stroke="black" points="528,-157 528,-169 "/>
<path fill="none" stroke="black" d="M528,-169C528,-175 522,-181 516,-181"/>
<text text-anchor="middle" x="501" y="-159.3" font-family="Times,serif" font-size="14.00">Edit</text>
</g>
<!-- rel_view&#45;&gt;rparm_edit -->
<g id="edge40" class="edge"><title>rel_view&#45;&gt;rparm_edit</title>
<path fill="none" stroke="black" d="M394.132,-173.171C401.584,-169.434 409.889,-165.967 418,-164 432.697,-160.436 449.314,-159.657 463.729,-159.966"/>
<polygon fill="black" stroke="black" points="463.647,-163.466 473.776,-160.359 463.921,-156.471 463.647,-163.466"/>
<text text-anchor="middle" x="437" y="-182.8" font-family="Times,serif" font-size="14.00">Edit</text>
<text text-anchor="middle" x="437" y="-167.8" font-family="Times,serif" font-size="14.00">parm</text>
</g>
<!-- rparm_add&#45;&gt;rel_view -->
<g id="edge38" class="edge"><title>rparm_add&#45;&gt;rel_view</title>
<path fill="none" stroke="black" d="M473.665,-88.9611C456.748,-98.0046 434.867,-111.094 418,-126 405.96,-136.64 394.641,-150.444 385.829,-162.417"/>
<polygon fill="black" stroke="black" points="382.847,-160.57 379.88,-170.741 388.542,-164.64 382.847,-160.57"/>
<text text-anchor="middle" x="437" y="-144.8" font-family="Times,serif" font-size="14.00">OK</text>
<text text-anchor="middle" x="437" y="-129.8" font-family="Times,serif" font-size="14.00">Cancel</text>
</g>
<!-- rparm_add&#45;&gt;rparm_add -->
<g id="edge36" class="edge"><title>rparm_add&#45;&gt;rparm_add</title>
<path fill="none" stroke="black" d="M489.422,-94.1527C487.641,-103.539 491.5,-112 501,-112 506.789,-112 510.484,-108.858 512.083,-104.28"/>
<polygon fill="black" stroke="black" points="515.586,-104.312 512.578,-94.1527 508.594,-103.97 515.586,-104.312"/>
<text text-anchor="middle" x="501" y="-115.8" font-family="Times,serif" font-size="14.00">Err</text>
</g>
<!-- rparm_edit&#45;&gt;rel_view -->
<g id="edge44" class="edge"><title>rparm_edit&#45;&gt;rel_view</title>
<path fill="none" stroke="black" d="M479.943,-181.016C472.877,-186.253 464.552,-191.29 456,-194 439.487,-199.233 420.37,-198.86 404.182,-196.816"/>
<polygon fill="black" stroke="black" points="404.435,-193.315 394.023,-195.274 403.384,-200.235 404.435,-193.315"/>
<text text-anchor="middle" x="437" y="-217.8" font-family="Times,serif" font-size="14.00">OK</text>
<text text-anchor="middle" x="437" y="-202.8" font-family="Times,serif" font-size="14.00">Cancel</text>
</g>
<!-- rparm_edit&#45;&gt;rparm_edit -->
<g id="edge42" class="edge"><title>rparm_edit&#45;&gt;rparm_edit</title>
<path fill="none" stroke="black" d="M489.422,-181.153C487.641,-190.539 491.5,-199 501,-199 506.789,-199 510.484,-195.858 512.083,-191.28"/>
<polygon fill="black" stroke="black" points="515.586,-191.312 512.578,-181.153 508.594,-190.97 515.586,-191.312"/>
<text text-anchor="middle" x="501" y="-202.8" font-family="Times,serif" font-size="14.00">Err</text>
</g>
<!-- index -->
<g id="node12" class="node"><title>index</title>
<polyline fill="none" stroke="black" points="42,-374 12,-374 "/>
<path fill="none" stroke="black" d="M12,-374C6,-374 0,-368 0,-362"/>
<polyline fill="none" stroke="black" points="0,-362 0,-350 "/>
<path fill="none" stroke="black" d="M0,-350C0,-344 6,-338 12,-338"/>
<polyline fill="none" stroke="black" points="12,-338 42,-338 "/>
<path fill="none" stroke="black" d="M42,-338C48,-338 54,-344 54,-350"/>
<polyline fill="none" stroke="black" points="54,-350 54,-362 "/>
<path fill="none" stroke="black" d="M54,-362C54,-368 48,-374 42,-374"/>
<text text-anchor="middle" x="27" y="-352.3" font-family="Times,serif" font-size="14.00">index</text>
</g>
<!-- index&#45;&gt;node_list -->
<g id="edge6" class="edge"><title>index&#45;&gt;node_list</title>
<path fill="none" stroke="black" d="M54.0317,-356C62.6318,-356 72.3631,-356 81.5935,-356"/>
<polygon fill="black" stroke="black" points="81.715,-359.5 91.715,-356 81.7149,-352.5 81.715,-359.5"/>
</g>
</g>
</svg>
