<?xml version="1.0" encoding="UTF-8" standalone="no"?>
<!DOCTYPE svg PUBLIC "-//W3C//DTD SVG 1.1//EN"
 "http://www.w3.org/Graphics/SVG/1.1/DTD/svg11.dtd">
<!-- Generated by graphviz version 2.28.0 (20120228.1926)
 -->
<!-- Title: classdiagramm Pages: 1 -->
<svg width="954pt" height="740pt"
 viewBox="0.00 0.00 954.00 740.00" xmlns="http://www.w3.org/2000/svg" xmlns:xlink="http://www.w3.org/1999/xlink">
<g id="graph1" class="graph" transform="scale(1 1) rotate(0) translate(4 736)">
<title>classdiagramm</title>
<polygon fill="white" stroke="white" points="-4,5 -4,-736 951,-736 951,5 -4,5"/>
<text text-anchor="middle" x="473" y="-7.8" font-family="Times,serif" font-size="14.00">Class Diagramm</text>
<g id="graph2" class="cluster"><title>cluster1</title>
<polygon fill="none" stroke="black" points="8,-433 8,-724 226,-724 226,-433 8,-433"/>
<text text-anchor="middle" x="117" y="-708.8" font-family="Times,serif" font-size="14.00">Core</text>
</g>
<g id="graph3" class="cluster"><title>cluster2</title>
<polygon fill="none" stroke="black" points="119,-242 119,-425 362,-425 362,-242 119,-242"/>
<text text-anchor="middle" x="240.5" y="-409.8" font-family="Times,serif" font-size="14.00">Employee</text>
</g>
<g id="graph4" class="cluster"><title>cluster3</title>
<polygon fill="none" stroke="black" points="128,-31 128,-234 938,-234 938,-31 128,-31"/>
<text text-anchor="middle" x="533" y="-218.8" font-family="Times,serif" font-size="14.00">Patient</text>
</g>
<g id="graph5" class="cluster"><title>cluster4</title>
<polygon fill="none" stroke="black" points="651,-418 651,-547 916,-547 916,-418 651,-418"/>
<text text-anchor="middle" x="783.5" y="-531.8" font-family="Times,serif" font-size="14.00">Legend</text>
</g>
<!-- PersonAddress -->
<g id="node2" class="node"><title>PersonAddress</title>
<polygon fill="none" stroke="black" points="212,-693 114,-693 114,-657 212,-657 212,-693"/>
<text text-anchor="middle" x="163" y="-671.3" font-family="Times,serif" font-size="14.00">PersonAddress</text>
</g>
<!-- Person -->
<g id="node4" class="node"><title>Person</title>
<polygon fill="none" stroke="black" points="70,-531 16,-531 16,-495 70,-495 70,-531"/>
<text text-anchor="middle" x="43" y="-509.3" font-family="Times,serif" font-size="14.00">Person</text>
</g>
<!-- PersonAddress&#45;&gt;Person -->
<g id="edge3" class="edge"><title>PersonAddress&#45;&gt;Person</title>
<path fill="none" stroke="black" d="M118.876,-656.898C114.94,-654.255 111.227,-651.295 108,-648 78.941,-618.326 61.1951,-572.956 51.9787,-543.136"/>
<polygon fill="none" stroke="black" points="51.9143,-542.915 46.3897,-538.281 48.543,-531.399 54.0675,-536.033 51.9143,-542.915"/>
</g>
<!-- PersonPhone -->
<g id="node5" class="node"><title>PersonPhone</title>
<polygon fill="none" stroke="black" points="206.5,-639 119.5,-639 119.5,-603 206.5,-603 206.5,-639"/>
<text text-anchor="middle" x="163" y="-617.3" font-family="Times,serif" font-size="14.00">PersonPhone</text>
</g>
<!-- PersonPhone&#45;&gt;Person -->
<g id="edge5" class="edge"><title>PersonPhone&#45;&gt;Person</title>
<path fill="none" stroke="black" d="M120.993,-602.946C116.422,-600.23 111.984,-597.241 108,-594 89.8658,-579.249 73.5968,-558.503 61.9997,-541.7"/>
<polygon fill="none" stroke="black" points="61.7409,-541.312 55.0835,-538.541 55.0808,-531.33 61.7383,-534.101 61.7409,-541.312"/>
</g>
<!-- PersonEmail -->
<g id="node7" class="node"><title>PersonEmail</title>
<polygon fill="none" stroke="black" points="206,-585 120,-585 120,-549 206,-549 206,-585"/>
<text text-anchor="middle" x="163" y="-563.3" font-family="Times,serif" font-size="14.00">PersonEmail</text>
</g>
<!-- PersonEmail&#45;&gt;Person -->
<g id="edge7" class="edge"><title>PersonEmail&#45;&gt;Person</title>
<path fill="none" stroke="black" d="M122.379,-548.869C109.123,-542.802 94.3974,-536.063 81.322,-530.08"/>
<polygon fill="none" stroke="black" points="81.2463,-530.045 74.126,-531.185 70.3346,-525.051 77.455,-523.911 81.2463,-530.045"/>
</g>
<!-- PersonDocument -->
<g id="node9" class="node"><title>PersonDocument</title>
<polygon fill="none" stroke="black" points="218,-531 108,-531 108,-495 218,-495 218,-531"/>
<text text-anchor="middle" x="163" y="-509.3" font-family="Times,serif" font-size="14.00">PersonDocument</text>
</g>
<!-- PersonDocument&#45;&gt;Person -->
<g id="edge9" class="edge"><title>PersonDocument&#45;&gt;Person</title>
<path fill="none" stroke="black" d="M107.835,-513C99.2469,-513 90.5212,-513 82.3924,-513"/>
<polygon fill="none" stroke="black" points="82.2155,-513 76.2155,-517 70.2155,-513 76.2155,-509 82.2155,-513"/>
</g>
<!-- PersonCode -->
<g id="node11" class="node"><title>PersonCode</title>
<polygon fill="none" stroke="black" points="204,-477 122,-477 122,-441 204,-441 204,-477"/>
<text text-anchor="middle" x="163" y="-455.3" font-family="Times,serif" font-size="14.00">PersonCode</text>
</g>
<!-- PersonCode&#45;&gt;Person -->
<g id="edge11" class="edge"><title>PersonCode&#45;&gt;Person</title>
<path fill="none" stroke="black" d="M122.379,-477.131C109.123,-483.198 94.3974,-489.937 81.322,-495.92"/>
<polygon fill="none" stroke="black" points="81.2463,-495.955 77.455,-502.089 70.3346,-500.949 74.126,-494.815 81.2463,-495.955"/>
</g>
<!-- Employee -->
<g id="node14" class="node"><title>Employee</title>
<polygon fill="none" stroke="black" points="199,-367 127,-367 127,-331 199,-331 199,-367"/>
<text text-anchor="middle" x="163" y="-345.3" font-family="Times,serif" font-size="14.00">Employee</text>
</g>
<!-- Employee&#45;&gt;Person -->
<g id="edge14" class="edge"><title>Employee&#45;&gt;Person</title>
<path fill="none" stroke="black" d="M148.921,-367.177C128.1,-396.116 87.3098,-452.807 63.1808,-486.342"/>
<polygon fill="none" stroke="black" points="60.1369,-484.58 57.1375,-494.741 65.819,-488.668 60.1369,-484.58"/>
</g>
<!-- MedEducation -->
<g id="node16" class="node"><title>MedEducation</title>
<polygon fill="none" stroke="black" points="353.5,-394 256.5,-394 256.5,-358 353.5,-358 353.5,-394"/>
<text text-anchor="middle" x="305" y="-372.3" font-family="Times,serif" font-size="14.00">MedEducation</text>
</g>
<!-- MedEducation&#45;&gt;Employee -->
<g id="edge16" class="edge"><title>MedEducation&#45;&gt;Employee</title>
<path fill="none" stroke="black" d="M256.212,-366.784C241.607,-363.967 225.563,-360.873 211.01,-358.066"/>
<polygon fill="none" stroke="black" points="210.984,-358.061 204.335,-360.853 199.201,-355.789 205.85,-352.997 210.984,-358.061"/>
</g>
<!-- Car -->
<g id="node18" class="node"><title>Car</title>
<polygon fill="none" stroke="black" points="332,-340 278,-340 278,-304 332,-304 332,-340"/>
<text text-anchor="middle" x="305" y="-318.3" font-family="Times,serif" font-size="14.00">Car</text>
</g>
<!-- Car&#45;&gt;Employee -->
<g id="edge18" class="edge"><title>Car&#45;&gt;Employee</title>
<path fill="none" stroke="black" d="M277.995,-327.015C259.247,-330.631 233.417,-335.612 211.085,-339.919"/>
<polygon fill="none" stroke="black" points="210.888,-339.957 205.755,-345.021 199.106,-342.23 204.24,-337.166 210.888,-339.957"/>
</g>
<!-- Training -->
<g id="node20" class="node"><title>Training</title>
<polygon fill="none" stroke="black" points="336.5,-286 273.5,-286 273.5,-250 336.5,-250 336.5,-286"/>
<text text-anchor="middle" x="305" y="-264.3" font-family="Times,serif" font-size="14.00">Training</text>
</g>
<!-- Training&#45;&gt;Employee -->
<g id="edge20" class="edge"><title>Training&#45;&gt;Employee</title>
<path fill="none" stroke="black" d="M273.481,-285.056C267.666,-288.337 261.637,-291.761 256,-295 239.3,-304.597 220.985,-315.308 205.124,-324.645"/>
<polygon fill="none" stroke="black" points="204.922,-324.764 201.785,-331.257 194.585,-330.859 197.722,-324.366 204.922,-324.764"/>
</g>
<!-- Patient -->
<g id="node23" class="node"><title>Patient</title>
<polygon fill="none" stroke="black" points="190,-203 136,-203 136,-167 190,-167 190,-203"/>
<text text-anchor="middle" x="163" y="-181.3" font-family="Times,serif" font-size="14.00">Patient</text>
</g>
<!-- Patient&#45;&gt;Person -->
<g id="edge23" class="edge"><title>Patient&#45;&gt;Person</title>
<path fill="none" stroke="black" d="M138.184,-203.056C127.452,-212.377 115.526,-224.599 108,-238 62.1742,-319.6 49.1043,-432.44 45.4207,-484.539"/>
<polygon fill="none" stroke="black" points="41.9162,-484.498 44.7687,-494.702 48.9019,-484.946 41.9162,-484.498"/>
</g>
<!-- EMC -->
<g id="node25" class="node"><title>EMC</title>
<polygon fill="none" stroke="black" points="332,-203 278,-203 278,-167 332,-167 332,-203"/>
<text text-anchor="middle" x="305" y="-181.3" font-family="Times,serif" font-size="14.00">EMC</text>
</g>
<!-- EMC&#45;&gt;Patient -->
<g id="edge25" class="edge"><title>EMC&#45;&gt;Patient</title>
<path fill="none" stroke="black" d="M277.995,-185C256.814,-185 226.595,-185 202.592,-185"/>
<polygon fill="none" stroke="black" points="202.341,-185 196.341,-189 190.341,-185 196.341,-181 202.341,-185"/>
</g>
<!-- Dispensary -->
<g id="node27" class="node"><title>Dispensary</title>
<polygon fill="none" stroke="black" points="602.5,-203 525.5,-203 525.5,-167 602.5,-167 602.5,-203"/>
<text text-anchor="middle" x="564" y="-181.3" font-family="Times,serif" font-size="14.00">Dispensary</text>
</g>
<!-- Dispensary&#45;&gt;EMC -->
<g id="edge27" class="edge"><title>Dispensary&#45;&gt;EMC</title>
<path fill="none" stroke="black" d="M525.355,-185C476.848,-185 392.979,-185 344.203,-185"/>
<polygon fill="none" stroke="black" points="344.018,-185 338.018,-189 332.018,-185 338.018,-181 344.018,-185"/>
</g>
<!-- MedHistory -->
<g id="node29" class="node"><title>MedHistory</title>
<polygon fill="none" stroke="black" points="475.5,-149 392.5,-149 392.5,-113 475.5,-113 475.5,-149"/>
<text text-anchor="middle" x="434" y="-127.3" font-family="Times,serif" font-size="14.00">MedHistory</text>
</g>
<!-- Dispensary&#45;&gt;MedHistory -->
<g id="edge31" class="edge"><title>Dispensary&#45;&gt;MedHistory</title>
<path fill="none" stroke="black" d="M525.288,-169.09C512.708,-163.783 498.487,-157.784 485.116,-152.143"/>
<polygon fill="black" stroke="black" points="486.14,-148.776 475.566,-148.114 483.419,-155.226 486.14,-148.776"/>
</g>
<!-- MedHistory&#45;&gt;EMC -->
<g id="edge29" class="edge"><title>MedHistory&#45;&gt;EMC</title>
<path fill="none" stroke="black" d="M392.467,-148.234C376.733,-154.925 358.824,-162.539 343.402,-169.097"/>
<polygon fill="none" stroke="black" points="343.213,-169.177 339.257,-175.206 332.17,-173.873 336.127,-167.844 343.213,-169.177"/>
</g>
<!-- Visit -->
<g id="node32" class="node"><title>Visit</title>
<polygon fill="none" stroke="black" points="591,-75 537,-75 537,-39 591,-39 591,-75"/>
<text text-anchor="middle" x="564" y="-53.3" font-family="Times,serif" font-size="14.00">Visit</text>
</g>
<!-- Visit&#45;&gt;MedHistory -->
<g id="edge33" class="edge"><title>Visit&#45;&gt;MedHistory</title>
<path fill="none" stroke="black" d="M536.869,-67.7569C523.718,-73.5093 507.7,-81.0382 494,-89 484.868,-94.3068 475.377,-100.653 466.745,-106.785"/>
<polygon fill="none" stroke="black" points="464.489,-104.098 458.445,-112.799 468.597,-109.766 464.489,-104.098"/>
</g>
<!-- Receipe -->
<g id="node34" class="node"><title>Receipe</title>
<polygon fill="none" stroke="black" points="723,-75 663,-75 663,-39 723,-39 723,-75"/>
<text text-anchor="middle" x="693" y="-53.3" font-family="Times,serif" font-size="14.00">Receipe</text>
</g>
<!-- Receipe&#45;&gt;Visit -->
<g id="edge35" class="edge"><title>Receipe&#45;&gt;Visit</title>
<path fill="none" stroke="black" d="M662.864,-57C645.286,-57 622.682,-57 603.627,-57"/>
<polygon fill="none" stroke="black" points="603.407,-57.0001 597.407,-61 591.407,-57 597.407,-53 603.407,-57.0001"/>
</g>
<!-- Hospitalization -->
<g id="node36" class="node"><title>Hospitalization</title>
<polygon fill="none" stroke="black" points="613.5,-149 514.5,-149 514.5,-113 613.5,-113 613.5,-149"/>
<text text-anchor="middle" x="564" y="-127.3" font-family="Times,serif" font-size="14.00">Hospitalization</text>
</g>
<!-- Hospitalization&#45;&gt;MedHistory -->
<g id="edge37" class="edge"><title>Hospitalization&#45;&gt;MedHistory</title>
<path fill="none" stroke="black" d="M514.244,-131C504.905,-131 495.106,-131 485.707,-131"/>
<polygon fill="none" stroke="black" points="485.706,-127.5 475.706,-131 485.706,-134.5 485.706,-127.5"/>
</g>
<!-- MedRecord -->
<g id="node38" class="node"><title>MedRecord</title>
<polygon fill="none" stroke="black" points="733.5,-129 652.5,-129 652.5,-93 733.5,-93 733.5,-129"/>
<text text-anchor="middle" x="693" y="-107.3" font-family="Times,serif" font-size="14.00">MedRecord</text>
</g>
<!-- MedRecord&#45;&gt;MedHistory -->
<g id="edge39" class="edge"><title>MedRecord&#45;&gt;MedHistory</title>
<path fill="none" stroke="black" d="M652.473,-104.878C616.21,-100.339 561.135,-96.1676 514,-104 505.251,-105.454 496.172,-107.755 487.419,-110.416"/>
<polygon fill="none" stroke="black" points="487.157,-110.501 482.693,-116.164 475.748,-114.221 480.213,-108.558 487.157,-110.501"/>
</g>
<!-- MedRecord&#45;&gt;Visit -->
<g id="edge41" class="edge"><title>MedRecord&#45;&gt;Visit</title>
<path fill="none" stroke="black" d="M652.165,-94.0622C636.282,-87.3087 618.093,-79.5751 602.455,-72.9256"/>
<polygon fill="none" stroke="black" points="602.116,-72.7817 595.029,-74.1149 591.073,-68.0861 598.16,-66.7528 602.116,-72.7817"/>
</g>
<!-- MedRecord&#45;&gt;Hospitalization -->
<g id="edge43" class="edge"><title>MedRecord&#45;&gt;Hospitalization</title>
<path fill="none" stroke="black" d="M652.165,-117.273C643.763,-118.596 634.716,-120.021 625.743,-121.434"/>
<polygon fill="none" stroke="black" points="625.473,-121.477 620.168,-126.361 613.619,-123.343 618.924,-118.459 625.473,-121.477"/>
</g>
<!-- MedRecordEntry -->
<g id="node42" class="node"><title>MedRecordEntry</title>
<polygon fill="none" stroke="black" points="929.5,-129 818.5,-129 818.5,-93 929.5,-93 929.5,-129"/>
<text text-anchor="middle" x="874" y="-107.3" font-family="Times,serif" font-size="14.00">MedRecordEntry</text>
</g>
<!-- MedRecordEntry&#45;&gt;MedRecord -->
<g id="edge45" class="edge"><title>MedRecordEntry&#45;&gt;MedRecord</title>
<path fill="none" stroke="black" d="M818.321,-111C795.246,-111 768.512,-111 745.761,-111"/>
<polygon fill="none" stroke="black" points="745.58,-111 739.58,-115 733.58,-111 739.58,-107 745.58,-111"/>
</g>
<!-- part -->
<g id="node45" class="node"><title>part</title>
<polygon fill="none" stroke="black" points="901,-516 847,-516 847,-480 901,-480 901,-516"/>
<text text-anchor="middle" x="874" y="-494.3" font-family="Times,serif" font-size="14.00">part</text>
</g>
<!-- container -->
<g id="node47" class="node"><title>container</title>
<polygon fill="none" stroke="black" points="726.5,-516 659.5,-516 659.5,-480 726.5,-480 726.5,-516"/>
<text text-anchor="middle" x="693" y="-494.3" font-family="Times,serif" font-size="14.00">container</text>
</g>
<!-- part&#45;&gt;container -->
<g id="edge48" class="edge"><title>part&#45;&gt;container</title>
<path fill="none" stroke="black" d="M846.972,-498C818.771,-498 773.247,-498 739.182,-498"/>
<polygon fill="none" stroke="black" points="738.747,-498 732.747,-502 726.747,-498 732.747,-494 738.747,-498"/>
<text text-anchor="middle" x="776" y="-501.8" font-family="Times,serif" font-size="14.00">included</text>
</g>
<!-- successor -->
<g id="node48" class="node"><title>successor</title>
<polygon fill="none" stroke="black" points="908,-462 840,-462 840,-426 908,-426 908,-462"/>
<text text-anchor="middle" x="874" y="-440.3" font-family="Times,serif" font-size="14.00">successor</text>
</g>
<!-- ancestor -->
<g id="node50" class="node"><title>ancestor</title>
<polygon fill="none" stroke="black" points="724,-462 662,-462 662,-426 724,-426 724,-462"/>
<text text-anchor="middle" x="693" y="-440.3" font-family="Times,serif" font-size="14.00">ancestor</text>
</g>
<!-- successor&#45;&gt;ancestor -->
<g id="edge50" class="edge"><title>successor&#45;&gt;ancestor</title>
<path fill="none" stroke="black" d="M839.751,-444C809.957,-444 766.176,-444 734.379,-444"/>
<polygon fill="none" stroke="black" points="734.093,-440.5 724.093,-444 734.093,-447.5 734.093,-440.5"/>
<text text-anchor="middle" x="776" y="-447.8" font-family="Times,serif" font-size="14.00">inherits</text>
</g>
</g>
</svg>
