<?xml version="1.0" encoding="UTF-8" standalone="no"?>
<!DOCTYPE svg PUBLIC "-//W3C//DTD SVG 1.1//EN"
 "http://www.w3.org/Graphics/SVG/1.1/DTD/svg11.dtd">
<!-- Generated by graphviz version 2.28.0 (20120228.1926)
 -->
<!-- Title: templates Pages: 1 -->
<svg width="446pt" height="271pt"
 viewBox="0.00 0.00 446.00 271.00" xmlns="http://www.w3.org/2000/svg" xmlns:xlink="http://www.w3.org/1999/xlink">
<g id="graph1" class="graph" transform="scale(1 1) rotate(0) translate(4 267)">
<title>templates</title>
<polygon fill="white" stroke="white" points="-4,5 -4,-267 443,-267 443,5 -4,5"/>
<text text-anchor="middle" x="219" y="-7.8" font-family="Times,serif" font-size="14.00">Templates</text>
<g id="graph2" class="cluster"><title>cluster0</title>
<polygon fill="none" stroke="black" points="266,-31 266,-196 430,-196 430,-31 266,-31"/>
<text text-anchor="middle" x="348" y="-38.8" font-family="Times,serif" font-size="14.00">Legend</text>
</g>
<!-- index -->
<g id="node1" class="node"><title>index</title>
<polygon fill="none" stroke="black" points="65,-188 11,-188 11,-152 65,-152 65,-188"/>
<text text-anchor="middle" x="38" y="-166.3" font-family="Times,serif" font-size="14.00">index</text>
</g>
<!-- base -->
<g id="node3" class="node"><title>base</title>
<polygon fill="none" stroke="black" points="89,-263 35,-263 35,-227 89,-227 89,-263"/>
<text text-anchor="middle" x="62" y="-241.3" font-family="Times,serif" font-size="14.00">base</text>
</g>
<!-- index&#45;&gt;base -->
<g id="edge2" class="edge"><title>index&#45;&gt;base</title>
<path fill="none" stroke="black" d="M43.6877,-188.3C46.3478,-196.391 49.5865,-206.242 52.5962,-215.397"/>
<polygon fill="none" stroke="black" points="52.6052,-215.424 58.2791,-219.875 56.3532,-226.824 50.6793,-222.374 52.6052,-215.424"/>
</g>
<!-- core\nbase -->
<g id="node4" class="node"><title>core\nbase</title>
<polygon fill="none" stroke="black" points="137,-189 83,-189 83,-151 137,-151 137,-189"/>
<text text-anchor="middle" x="110" y="-173.8" font-family="Times,serif" font-size="14.00">core</text>
<text text-anchor="middle" x="110" y="-158.8" font-family="Times,serif" font-size="14.00">base</text>
</g>
<!-- core\nbase&#45;&gt;base -->
<g id="edge4" class="edge"><title>core\nbase&#45;&gt;base</title>
<path fill="none" stroke="black" d="M98.1348,-189.045C92.3534,-197.838 85.297,-208.569 78.9593,-218.208"/>
<polygon fill="none" stroke="black" points="75.9678,-216.387 73.3981,-226.665 81.8167,-220.233 75.9678,-216.387"/>
</g>
<!-- core\nindex -->
<g id="node6" class="node"><title>core\nindex</title>
<polygon fill="none" stroke="black" points="54,-99 0,-99 0,-61 54,-61 54,-99"/>
<text text-anchor="middle" x="27" y="-83.8" font-family="Times,serif" font-size="14.00">core</text>
<text text-anchor="middle" x="27" y="-68.8" font-family="Times,serif" font-size="14.00">index</text>
</g>
<!-- core\nindex&#45;&gt;core\nbase -->
<g id="edge6" class="edge"><title>core\nindex&#45;&gt;core\nbase</title>
<path fill="none" stroke="black" d="M44.1977,-99.2337C56.2167,-111.977 72.4349,-129.172 85.7625,-143.302"/>
<polygon fill="none" stroke="black" points="83.4168,-145.916 92.8244,-150.79 88.5091,-141.113 83.4168,-145.916"/>
</g>
<!-- core\nperson_list -->
<g id="node8" class="node"><title>core\nperson_list</title>
<polygon fill="none" stroke="black" points="148,-99 72,-99 72,-61 148,-61 148,-99"/>
<text text-anchor="middle" x="110" y="-83.8" font-family="Times,serif" font-size="14.00">core</text>
<text text-anchor="middle" x="110" y="-68.8" font-family="Times,serif" font-size="14.00">person_list</text>
</g>
<!-- core\nperson_list&#45;&gt;core\nbase -->
<g id="edge8" class="edge"><title>core\nperson_list&#45;&gt;core\nbase</title>
<path fill="none" stroke="black" d="M110,-99.2337C110,-111.151 110,-126.962 110,-140.518"/>
<polygon fill="none" stroke="black" points="106.5,-140.79 110,-150.79 113.5,-140.79 106.5,-140.79"/>
</g>
<!-- core\nperson_detail -->
<g id="node10" class="node"><title>core\nperson_detail</title>
<polygon fill="none" stroke="black" points="255.5,-99 166.5,-99 166.5,-61 255.5,-61 255.5,-99"/>
<text text-anchor="middle" x="211" y="-83.8" font-family="Times,serif" font-size="14.00">core</text>
<text text-anchor="middle" x="211" y="-68.8" font-family="Times,serif" font-size="14.00">person_detail</text>
</g>
<!-- core\nperson_detail&#45;&gt;core\nbase -->
<g id="edge10" class="edge"><title>core\nperson_detail&#45;&gt;core\nbase</title>
<path fill="none" stroke="black" d="M190.073,-99.2337C175.176,-112.213 154.979,-129.81 138.596,-144.084"/>
<polygon fill="none" stroke="black" points="136.141,-141.582 130.9,-150.79 140.739,-146.859 136.141,-141.582"/>
</g>
<!-- part -->
<g id="node13" class="node"><title>part</title>
<polygon fill="none" stroke="black" points="414,-98 360,-98 360,-62 414,-62 414,-98"/>
<text text-anchor="middle" x="387" y="-76.3" font-family="Times,serif" font-size="14.00">part</text>
</g>
<!-- container -->
<g id="node15" class="node"><title>container</title>
<polygon fill="none" stroke="black" points="421.5,-188 354.5,-188 354.5,-152 421.5,-152 421.5,-188"/>
<text text-anchor="middle" x="388" y="-166.3" font-family="Times,serif" font-size="14.00">container</text>
</g>
<!-- part&#45;&gt;container -->
<g id="edge13" class="edge"><title>part&#45;&gt;container</title>
<path fill="none" stroke="black" d="M387.198,-98.386C387.331,-110.153 387.511,-125.988 387.667,-139.681"/>
<polygon fill="none" stroke="black" points="387.67,-139.95 391.738,-145.904 387.806,-151.95 383.738,-145.995 387.67,-139.95"/>
<text text-anchor="middle" x="410.5" y="-121.3" font-family="Times,serif" font-size="14.00">included</text>
</g>
<!-- successor -->
<g id="node16" class="node"><title>successor</title>
<polygon fill="none" stroke="black" points="342,-98 274,-98 274,-62 342,-62 342,-98"/>
<text text-anchor="middle" x="308" y="-76.3" font-family="Times,serif" font-size="14.00">successor</text>
</g>
<!-- ancestor -->
<g id="node18" class="node"><title>ancestor</title>
<polygon fill="none" stroke="black" points="336,-188 274,-188 274,-152 336,-152 336,-188"/>
<text text-anchor="middle" x="305" y="-166.3" font-family="Times,serif" font-size="14.00">ancestor</text>
</g>
<!-- successor&#45;&gt;ancestor -->
<g id="edge15" class="edge"><title>successor&#45;&gt;ancestor</title>
<path fill="none" stroke="black" d="M307.407,-98.386C306.985,-110.76 306.41,-127.631 305.928,-141.78"/>
<polygon fill="none" stroke="black" points="302.424,-141.836 305.581,-151.95 309.42,-142.075 302.424,-141.836"/>
<text text-anchor="middle" x="327.5" y="-121.3" font-family="Times,serif" font-size="14.00">inherits</text>
</g>
</g>
</svg>
