<?xml version="1.0" encoding="UTF-8" standalone="no"?>
<!DOCTYPE svg PUBLIC "-//W3C//DTD SVG 1.1//EN"
 "http://www.w3.org/Graphics/SVG/1.1/DTD/svg11.dtd">
<!-- Generated by graphviz version 2.28.0 (20130109.1153)
 -->
<!-- Title: ui Pages: 1 -->
<svg width="561pt" height="423pt"
 viewBox="0.00 0.00 561.00 423.00" xmlns="http://www.w3.org/2000/svg" xmlns:xlink="http://www.w3.org/1999/xlink">
<g id="graph1" class="graph" transform="scale(1 1) rotate(0) translate(4 419)">
<title>ui</title>
<polygon fill="white" stroke="white" points="-4,5 -4,-419 558,-419 558,5 -4,5"/>
<text text-anchor="middle" x="276.5" y="-7.8" font-family="Times,serif" font-size="14.00">UI</text>
<g id="graph3" class="cluster"><title>cluster_patient</title>
<polygon fill="none" stroke="black" points="96,-197 96,-407 545,-407 545,-197 96,-197"/>
<text text-anchor="middle" x="320.5" y="-391.8" font-family="Times,serif" font-size="14.00">Поциэнт</text>
</g>
<g id="graph4" class="cluster"><title>cluster_employee</title>
<polygon fill="none" stroke="black" points="87,-114 87,-189 176,-189 176,-114 87,-114"/>
<text text-anchor="middle" x="131.5" y="-173.8" font-family="Times,serif" font-size="14.00">Сотрудники</text>
</g>
<g id="graph5" class="cluster"><title>cluster_ref</title>
<polygon fill="none" stroke="black" points="84,-31 84,-106 179,-106 179,-31 84,-31"/>
<text text-anchor="middle" x="131.5" y="-90.8" font-family="Times,serif" font-size="14.00">Справочники</text>
</g>
<!-- patient_list -->
<g id="node1" class="node"><title>patient_list</title>
<polyline fill="none" stroke="black" points="146,-292 116,-292 "/>
<path fill="none" stroke="black" d="M116,-292C110,-292 104,-286 104,-280"/>
<polyline fill="none" stroke="black" points="104,-280 104,-268 "/>
<path fill="none" stroke="black" d="M104,-268C104,-262 110,-256 116,-256"/>
<polyline fill="none" stroke="black" points="116,-256 146,-256 "/>
<path fill="none" stroke="black" d="M146,-256C152,-256 158,-262 158,-268"/>
<polyline fill="none" stroke="black" points="158,-268 158,-280 "/>
<path fill="none" stroke="black" d="M158,-280C158,-286 152,-292 146,-292"/>
<text text-anchor="middle" x="131" y="-270.3" font-family="Times,serif" font-size="14.00">List</text>
</g>
<!-- patient_list&#45;&gt;patient_list -->
<g id="edge10" class="edge"><title>patient_list&#45;&gt;patient_list</title>
<path fill="none" stroke="black" d="M120.507,-292.153C118.893,-301.539 122.391,-310 131,-310 136.246,-310 139.594,-306.858 141.044,-302.28"/>
<polygon fill="black" stroke="black" points="144.547,-302.298 141.493,-292.153 137.554,-301.988 144.547,-302.298"/>
<text text-anchor="middle" x="131" y="-328.8" font-family="Times,serif" font-size="14.00">Del</text>
<text text-anchor="middle" x="131" y="-313.8" font-family="Times,serif" font-size="14.00">checked</text>
</g>
<!-- patient_detail -->
<g id="node2" class="node"><title>patient_detail</title>
<polyline fill="none" stroke="black" points="397,-292 367,-292 "/>
<path fill="none" stroke="black" d="M367,-292C361,-292 355,-286 355,-280"/>
<polyline fill="none" stroke="black" points="355,-280 355,-268 "/>
<path fill="none" stroke="black" d="M355,-268C355,-262 361,-256 367,-256"/>
<polyline fill="none" stroke="black" points="367,-256 397,-256 "/>
<path fill="none" stroke="black" d="M397,-256C403,-256 409,-262 409,-268"/>
<polyline fill="none" stroke="black" points="409,-268 409,-280 "/>
<path fill="none" stroke="black" d="M409,-280C409,-286 403,-292 397,-292"/>
<text text-anchor="middle" x="382" y="-270.3" font-family="Times,serif" font-size="14.00">Detail</text>
</g>
<!-- patient_list&#45;&gt;patient_detail -->
<g id="edge8" class="edge"><title>patient_list&#45;&gt;patient_detail</title>
<path fill="none" stroke="black" d="M158.012,-261.193C190.844,-246.652 249.065,-226.256 299,-237 314.88,-240.417 331.39,-247.164 345.398,-253.971"/>
<polygon fill="black" stroke="black" points="344.155,-257.265 354.658,-258.654 347.314,-251.018 344.155,-257.265"/>
<text text-anchor="middle" x="272" y="-240.8" font-family="Times,serif" font-size="14.00">View</text>
</g>
<!-- patient_add -->
<g id="node3" class="node"><title>patient_add</title>
<polyline fill="none" stroke="black" points="287,-343 257,-343 "/>
<path fill="none" stroke="black" d="M257,-343C251,-343 245,-337 245,-331"/>
<polyline fill="none" stroke="black" points="245,-331 245,-319 "/>
<path fill="none" stroke="black" d="M245,-319C245,-313 251,-307 257,-307"/>
<polyline fill="none" stroke="black" points="257,-307 287,-307 "/>
<path fill="none" stroke="black" d="M287,-307C293,-307 299,-313 299,-319"/>
<polyline fill="none" stroke="black" points="299,-319 299,-331 "/>
<path fill="none" stroke="black" d="M299,-331C299,-337 293,-343 287,-343"/>
<text text-anchor="middle" x="272" y="-321.3" font-family="Times,serif" font-size="14.00">Add</text>
</g>
<!-- patient_list&#45;&gt;patient_add -->
<g id="edge12" class="edge"><title>patient_list&#45;&gt;patient_add</title>
<path fill="none" stroke="black" d="M158.034,-278.82C177.49,-282.904 204.495,-289.604 227,-299 229.856,-300.192 232.75,-301.542 235.619,-302.985"/>
<polygon fill="black" stroke="black" points="234.156,-306.172 244.62,-307.828 237.472,-300.007 234.156,-306.172"/>
<text text-anchor="middle" x="208" y="-302.8" font-family="Times,serif" font-size="14.00">Add</text>
</g>
<!-- patient_detail&#45;&gt;patient_list -->
<g id="edge22" class="edge"><title>patient_detail&#45;&gt;patient_list</title>
<path fill="none" stroke="black" d="M354.8,-274C310.138,-274 219.174,-274 168.376,-274"/>
<polygon fill="black" stroke="black" points="168.177,-270.5 158.177,-274 168.177,-277.5 168.177,-270.5"/>
<text text-anchor="middle" x="272" y="-277.8" font-family="Times,serif" font-size="14.00">Del</text>
</g>
<!-- patient_edit -->
<g id="node4" class="node"><title>patient_edit</title>
<polyline fill="none" stroke="black" points="525,-292 495,-292 "/>
<path fill="none" stroke="black" d="M495,-292C489,-292 483,-286 483,-280"/>
<polyline fill="none" stroke="black" points="483,-280 483,-268 "/>
<path fill="none" stroke="black" d="M483,-268C483,-262 489,-256 495,-256"/>
<polyline fill="none" stroke="black" points="495,-256 525,-256 "/>
<path fill="none" stroke="black" d="M525,-256C531,-256 537,-262 537,-268"/>
<polyline fill="none" stroke="black" points="537,-268 537,-280 "/>
<path fill="none" stroke="black" d="M537,-280C537,-286 531,-292 525,-292"/>
<text text-anchor="middle" x="510" y="-270.3" font-family="Times,serif" font-size="14.00">Edit</text>
</g>
<!-- patient_detail&#45;&gt;patient_edit -->
<g id="edge20" class="edge"><title>patient_detail&#45;&gt;patient_edit</title>
<path fill="none" stroke="black" d="M409.009,-261.429C414.803,-259.18 421.007,-257.178 427,-256 443.572,-252.741 448.428,-252.741 465,-256 467.809,-256.552 470.665,-257.286 473.503,-258.14"/>
<polygon fill="black" stroke="black" points="472.396,-261.461 482.991,-261.429 474.689,-254.847 472.396,-261.461"/>
<text text-anchor="middle" x="446" y="-259.8" font-family="Times,serif" font-size="14.00">Edit</text>
</g>
<!-- patient_add&#45;&gt;patient_list -->
<g id="edge16" class="edge"><title>patient_add&#45;&gt;patient_list</title>
<path fill="none" stroke="black" d="M244.723,-324.639C228.23,-323.652 206.793,-320.955 189,-314 179.12,-310.138 169.316,-304.224 160.696,-298.118"/>
<polygon fill="black" stroke="black" points="162.622,-295.188 152.513,-292.017 158.439,-300.8 162.622,-295.188"/>
<text text-anchor="middle" x="208" y="-325.8" font-family="Times,serif" font-size="14.00">Cancel</text>
</g>
<!-- patient_add&#45;&gt;patient_detail -->
<g id="edge18" class="edge"><title>patient_add&#45;&gt;patient_detail</title>
<path fill="none" stroke="black" d="M299.144,-312.654C313.102,-306.063 330.48,-297.857 345.629,-290.703"/>
<polygon fill="black" stroke="black" points="347.175,-293.844 354.723,-286.409 344.186,-287.514 347.175,-293.844"/>
<text text-anchor="middle" x="327" y="-307.8" font-family="Times,serif" font-size="14.00">OK</text>
</g>
<!-- patient_add&#45;&gt;patient_add -->
<g id="edge14" class="edge"><title>patient_add&#45;&gt;patient_add</title>
<path fill="none" stroke="black" d="M262.231,-343.153C260.728,-352.539 263.984,-361 272,-361 276.885,-361 280.002,-357.858 281.352,-353.28"/>
<polygon fill="black" stroke="black" points="284.854,-353.288 281.769,-343.153 277.86,-353 284.854,-353.288"/>
<text text-anchor="middle" x="272" y="-364.8" font-family="Times,serif" font-size="14.00">Err</text>
</g>
<!-- patient_edit&#45;&gt;patient_detail -->
<g id="edge26" class="edge"><title>patient_edit&#45;&gt;patient_detail</title>
<path fill="none" stroke="black" d="M482.926,-274C464.519,-274 439.613,-274 419.27,-274"/>
<polygon fill="black" stroke="black" points="419.107,-270.5 409.107,-274 419.107,-277.5 419.107,-270.5"/>
<text text-anchor="middle" x="446" y="-292.8" font-family="Times,serif" font-size="14.00">OK</text>
<text text-anchor="middle" x="446" y="-277.8" font-family="Times,serif" font-size="14.00">Cancel</text>
</g>
<!-- patient_edit&#45;&gt;patient_edit -->
<g id="edge24" class="edge"><title>patient_edit&#45;&gt;patient_edit</title>
<path fill="none" stroke="black" d="M498.422,-292.153C496.641,-301.539 500.5,-310 510,-310 515.789,-310 519.484,-306.858 521.083,-302.28"/>
<polygon fill="black" stroke="black" points="524.586,-302.312 521.578,-292.153 517.594,-301.97 524.586,-302.312"/>
<text text-anchor="middle" x="510" y="-313.8" font-family="Times,serif" font-size="14.00">Err</text>
</g>
<!-- employee_list -->
<g id="node5" class="node"><title>employee_list</title>
<polyline fill="none" stroke="black" points="146,-158 116,-158 "/>
<path fill="none" stroke="black" d="M116,-158C110,-158 104,-152 104,-146"/>
<polyline fill="none" stroke="black" points="104,-146 104,-134 "/>
<path fill="none" stroke="black" d="M104,-134C104,-128 110,-122 116,-122"/>
<polyline fill="none" stroke="black" points="116,-122 146,-122 "/>
<path fill="none" stroke="black" d="M146,-122C152,-122 158,-128 158,-134"/>
<polyline fill="none" stroke="black" points="158,-134 158,-146 "/>
<path fill="none" stroke="black" d="M158,-146C158,-152 152,-158 146,-158"/>
<text text-anchor="middle" x="131" y="-136.3" font-family="Times,serif" font-size="14.00">List</text>
</g>
<!-- ref_list -->
<g id="node6" class="node"><title>ref_list</title>
<polyline fill="none" stroke="black" points="146,-75 116,-75 "/>
<path fill="none" stroke="black" d="M116,-75C110,-75 104,-69 104,-63"/>
<polyline fill="none" stroke="black" points="104,-63 104,-51 "/>
<path fill="none" stroke="black" d="M104,-51C104,-45 110,-39 116,-39"/>
<polyline fill="none" stroke="black" points="116,-39 146,-39 "/>
<path fill="none" stroke="black" d="M146,-39C152,-39 158,-45 158,-51"/>
<polyline fill="none" stroke="black" points="158,-51 158,-63 "/>
<path fill="none" stroke="black" d="M158,-63C158,-69 152,-75 146,-75"/>
<text text-anchor="middle" x="131" y="-53.3" font-family="Times,serif" font-size="14.00">List</text>
</g>
<!-- index -->
<g id="node7" class="node"><title>index</title>
<polyline fill="none" stroke="black" points="42,-158 12,-158 "/>
<path fill="none" stroke="black" d="M12,-158C6,-158 0,-152 0,-146"/>
<polyline fill="none" stroke="black" points="0,-146 0,-134 "/>
<path fill="none" stroke="black" d="M0,-134C0,-128 6,-122 12,-122"/>
<polyline fill="none" stroke="black" points="12,-122 42,-122 "/>
<path fill="none" stroke="black" d="M42,-122C48,-122 54,-128 54,-134"/>
<polyline fill="none" stroke="black" points="54,-134 54,-146 "/>
<path fill="none" stroke="black" d="M54,-146C54,-152 48,-158 42,-158"/>
<text text-anchor="middle" x="27" y="-136.3" font-family="Times,serif" font-size="14.00">index</text>
</g>
<!-- index&#45;&gt;patient_list -->
<g id="edge3" class="edge"><title>index&#45;&gt;patient_list</title>
<path fill="none" stroke="black" d="M41.7562,-158.072C59.3225,-181.149 89.8504,-221.254 109.991,-247.714"/>
<polygon fill="black" stroke="black" points="107.294,-249.949 116.136,-255.787 112.864,-245.71 107.294,-249.949"/>
</g>
<!-- index&#45;&gt;employee_list -->
<g id="edge4" class="edge"><title>index&#45;&gt;employee_list</title>
<path fill="none" stroke="black" d="M54.0028,-140C66.0187,-140 80.4941,-140 93.5735,-140"/>
<polygon fill="black" stroke="black" points="93.69,-143.5 103.69,-140 93.69,-136.5 93.69,-143.5"/>
</g>
<!-- index&#45;&gt;ref_list -->
<g id="edge5" class="edge"><title>index&#45;&gt;ref_list</title>
<path fill="none" stroke="black" d="M50.1325,-121.99C64.6019,-110.216 83.6938,-94.6805 99.5829,-81.7512"/>
<polygon fill="black" stroke="black" points="102.011,-84.2877 107.558,-75.2612 97.5929,-78.8581 102.011,-84.2877"/>
</g>
</g>
</svg>
